<svg xmlns="http://www.w3.org/2000/svg" xmlns:xlink="http://www.w3.org/1999/xlink" contentStyleType="text/css" height="484px" preserveAspectRatio="none" style="width:1385px;height:484px;background:#303030;" version="1.1" viewBox="0 0 1385 484" width="1385px" zoomAndPan="magnify"><defs/><g><rect fill="#303030" height="484" style="stroke:none;stroke-width:1.0;" width="1385" x="0" y="0"/><!--entity ores--><g id="elem_ores"><rect fill="#E0D8B0" height="46.2969" rx="2.5" ry="2.5" style="stroke:#303030;stroke-width:0.5;" width="71" x="55.5" y="113.29"/><rect fill="#E0D8B0" height="10" style="stroke:#303030;stroke-width:0.5;" width="15" x="106.5" y="118.29"/><rect fill="#E0D8B0" height="2" style="stroke:#303030;stroke-width:0.5;" width="4" x="104.5" y="120.29"/><rect fill="#E0D8B0" height="2" style="stroke:#303030;stroke-width:0.5;" width="4" x="104.5" y="124.29"/><text fill="#303030" font-family="sans-serif" font-size="14" lengthAdjust="spacing" textLength="31" x="70.5" y="146.2851">ores</text></g><!--entity minerals--><g id="elem_minerals"><rect fill="#E0D8B0" height="46.2969" rx="2.5" ry="2.5" style="stroke:#303030;stroke-width:0.5;" width="98" x="161" y="113.29"/><rect fill="#E0D8B0" height="10" style="stroke:#303030;stroke-width:0.5;" width="15" x="239" y="118.29"/><rect fill="#E0D8B0" height="2" style="stroke:#303030;stroke-width:0.5;" width="4" x="237" y="120.29"/><rect fill="#E0D8B0" height="2" style="stroke:#303030;stroke-width:0.5;" width="4" x="237" y="124.29"/><text fill="#303030" font-family="sans-serif" font-size="14" lengthAdjust="spacing" textLength="58" x="176" y="146.2851">minerals</text></g><!--entity alloys--><g id="elem_alloys"><rect fill="#E0D8B0" height="46.2969" rx="2.5" ry="2.5" style="stroke:#303030;stroke-width:0.5;" width="78" x="294" y="113.29"/><rect fill="#E0D8B0" height="10" style="stroke:#303030;stroke-width:0.5;" width="15" x="352" y="118.29"/><rect fill="#E0D8B0" height="2" style="stroke:#303030;stroke-width:0.5;" width="4" x="350" y="120.29"/><rect fill="#E0D8B0" height="2" style="stroke:#303030;stroke-width:0.5;" width="4" x="350" y="124.29"/><text fill="#303030" font-family="sans-serif" font-size="14" lengthAdjust="spacing" textLength="38" x="309" y="146.2851">alloys</text></g><!--entity adv. alloys--><g id="elem_adv. alloys"><rect fill="#E0D8B0" height="46.2969" rx="2.5" ry="2.5" style="stroke:#303030;stroke-width:0.5;" width="110" x="407" y="113.29"/><rect fill="#E0D8B0" height="10" style="stroke:#303030;stroke-width:0.5;" width="15" x="497" y="118.29"/><rect fill="#E0D8B0" height="2" style="stroke:#303030;stroke-width:0.5;" width="4" x="495" y="120.29"/><rect fill="#E0D8B0" height="2" style="stroke:#303030;stroke-width:0.5;" width="4" x="495" y="124.29"/><text fill="#303030" font-family="sans-serif" font-size="14" lengthAdjust="spacing" textLength="70" x="422" y="146.2851">adv. alloys</text></g><g id="elem_GMN9"><path d="M6,10.01 L6,50.2756 A0,0 0 0 0 6,50.2756 L87,50.2756 L91,113.01 L95,50.2756 L176,50.2756 A0,0 0 0 0 176,50.2756 L176,20.01 L166,10.01 L6,10.01 A0,0 0 0 0 6,10.01 " fill="#D0C080" style="stroke:#303030;stroke-width:1.0;"/><path d="M166,10.01 L166,20.01 L176,20.01 L166,10.01 " fill="#D0C080" style="stroke:#303030;stroke-width:1.0;"/><text fill="#303030" font-family="sans-serif" font-size="13" lengthAdjust="spacing" textLength="149" x="12" y="27.0769">prob. general unrefined</text><text fill="#303030" font-family="sans-serif" font-size="13" lengthAdjust="spacing" textLength="105" x="12" y="42.2097">solid, liquid, gas.</text></g><!--entity T1 products A--><g id="elem_T1 products A"><rect fill="#E0D8B0" height="46.2969" rx="2.5" ry="2.5" style="stroke:#303030;stroke-width:0.5;" width="137" x="49.5" y="219.59"/><rect fill="#E0D8B0" height="10" style="stroke:#303030;stroke-width:0.5;" width="15" x="166.5" y="224.59"/><rect fill="#E0D8B0" height="2" style="stroke:#303030;stroke-width:0.5;" width="4" x="164.5" y="226.59"/><rect fill="#E0D8B0" height="2" style="stroke:#303030;stroke-width:0.5;" width="4" x="164.5" y="230.59"/><text fill="#303030" font-family="sans-serif" font-size="14" lengthAdjust="spacing" textLength="97" x="64.5" y="252.5851">T1 products A</text></g><!--entity T2 products A--><g id="elem_T2 products A"><rect fill="#E0D8B0" height="46.2969" rx="2.5" ry="2.5" style="stroke:#303030;stroke-width:0.5;" width="137" x="221.5" y="219.59"/><rect fill="#E0D8B0" height="10" style="stroke:#303030;stroke-width:0.5;" width="15" x="338.5" y="224.59"/><rect fill="#E0D8B0" height="2" style="stroke:#303030;stroke-width:0.5;" width="4" x="336.5" y="226.59"/><rect fill="#E0D8B0" height="2" style="stroke:#303030;stroke-width:0.5;" width="4" x="336.5" y="230.59"/><text fill="#303030" font-family="sans-serif" font-size="14" lengthAdjust="spacing" textLength="97" x="236.5" y="252.5851">T2 products A</text></g><!--entity T3 products A--><g id="elem_T3 products A"><rect fill="#E0D8B0" height="46.2969" rx="2.5" ry="2.5" style="stroke:#303030;stroke-width:0.5;" width="137" x="393.5" y="219.59"/><rect fill="#E0D8B0" height="10" style="stroke:#303030;stroke-width:0.5;" width="15" x="510.5" y="224.59"/><rect fill="#E0D8B0" height="2" style="stroke:#303030;stroke-width:0.5;" width="4" x="508.5" y="226.59"/><rect fill="#E0D8B0" height="2" style="stroke:#303030;stroke-width:0.5;" width="4" x="508.5" y="230.59"/><text fill="#303030" font-family="sans-serif" font-size="14" lengthAdjust="spacing" textLength="97" x="408.5" y="252.5851">T3 products A</text></g><!--entity organics--><g id="elem_organics"><rect fill="#E0D8B0" height="46.2969" rx="2.5" ry="2.5" style="stroke:#303030;stroke-width:0.5;" width="99" x="626.5" y="113.29"/><rect fill="#E0D8B0" height="10" style="stroke:#303030;stroke-width:0.5;" width="15" x="705.5" y="118.29"/><rect fill="#E0D8B0" height="2" style="stroke:#303030;stroke-width:0.5;" width="4" x="703.5" y="120.29"/><rect fill="#E0D8B0" height="2" style="stroke:#303030;stroke-width:0.5;" width="4" x="703.5" y="124.29"/><text fill="#303030" font-family="sans-serif" font-size="14" lengthAdjust="spacing" textLength="59" x="641.5" y="146.2851">organics</text></g><!--entity organics r1--><g id="elem_organics r1"><rect fill="#E0D8B0" height="46.2969" rx="2.5" ry="2.5" style="stroke:#303030;stroke-width:0.5;" width="117" x="760.5" y="113.29"/><rect fill="#E0D8B0" height="10" style="stroke:#303030;stroke-width:0.5;" width="15" x="857.5" y="118.29"/><rect fill="#E0D8B0" height="2" style="stroke:#303030;stroke-width:0.5;" width="4" x="855.5" y="120.29"/><rect fill="#E0D8B0" height="2" style="stroke:#303030;stroke-width:0.5;" width="4" x="855.5" y="124.29"/><text fill="#303030" font-family="sans-serif" font-size="14" lengthAdjust="spacing" textLength="77" x="775.5" y="146.2851">organics r1</text></g><!--entity organics r2--><g id="elem_organics r2"><rect fill="#E0D8B0" height="46.2969" rx="2.5" ry="2.5" style="stroke:#303030;stroke-width:0.5;" width="117" x="922.5" y="113.29"/><rect fill="#E0D8B0" height="10" style="stroke:#303030;stroke-width:0.5;" width="15" x="1019.5" y="118.29"/><rect fill="#E0D8B0" height="2" style="stroke:#303030;stroke-width:0.5;" width="4" x="1017.5" y="120.29"/><rect fill="#E0D8B0" height="2" style="stroke:#303030;stroke-width:0.5;" width="4" x="1017.5" y="124.29"/><text fill="#303030" font-family="sans-serif" font-size="14" lengthAdjust="spacing" textLength="77" x="937.5" y="146.2851">organics r2</text></g><g id="elem_GMN27"><path d="M735,10.01 L735,50.2756 A0,0 0 0 0 735,50.2756 L809.32,50.2756 L817.49,113.01 L817.32,50.2756 L889,50.2756 A0,0 0 0 0 889,50.2756 L889,20.01 L879,10.01 L735,10.01 A0,0 0 0 0 735,10.01 " fill="#D0C080" style="stroke:#303030;stroke-width:1.0;"/><path d="M879,10.01 L879,20.01 L889,20.01 L879,10.01 " fill="#D0C080" style="stroke:#303030;stroke-width:1.0;"/><text fill="#303030" font-family="sans-serif" font-size="13" lengthAdjust="spacing" textLength="79" x="741" y="27.0769">e.g. T1 food,</text><text fill="#303030" font-family="sans-serif" font-size="13" lengthAdjust="spacing" textLength="133" x="741" y="42.2097">T1 industry supplies?</text></g><g id="elem_GMN30"><path d="M924,10.01 L924,50.2756 A0,0 0 0 0 924,50.2756 L981.87,50.2756 L982.29,113.01 L989.87,50.2756 L1050,50.2756 A0,0 0 0 0 1050,50.2756 L1050,20.01 L1040,10.01 L924,10.01 A0,0 0 0 0 924,10.01 " fill="#D0C080" style="stroke:#303030;stroke-width:1.0;"/><path d="M1040,10.01 L1040,20.01 L1050,20.01 L1040,10.01 " fill="#D0C080" style="stroke:#303030;stroke-width:1.0;"/><text fill="#303030" font-family="sans-serif" font-size="13" lengthAdjust="spacing" textLength="87" x="930" y="27.0769">e.g. T1 meds,</text><text fill="#303030" font-family="sans-serif" font-size="13" lengthAdjust="spacing" textLength="105" x="930" y="42.2097">T2 ind. supplies?</text></g><!--entity T1 products B--><g id="elem_T1 products B"><rect fill="#E0D8B0" height="46.2969" rx="2.5" ry="2.5" style="stroke:#303030;stroke-width:0.5;" width="138" x="566" y="219.59"/><rect fill="#E0D8B0" height="10" style="stroke:#303030;stroke-width:0.5;" width="15" x="684" y="224.59"/><rect fill="#E0D8B0" height="2" style="stroke:#303030;stroke-width:0.5;" width="4" x="682" y="226.59"/><rect fill="#E0D8B0" height="2" style="stroke:#303030;stroke-width:0.5;" width="4" x="682" y="230.59"/><text fill="#303030" font-family="sans-serif" font-size="14" lengthAdjust="spacing" textLength="98" x="581" y="252.5851">T1 products B</text></g><!--entity T2 products B--><g id="elem_T2 products B"><rect fill="#E0D8B0" height="46.2969" rx="2.5" ry="2.5" style="stroke:#303030;stroke-width:0.5;" width="138" x="739" y="219.59"/><rect fill="#E0D8B0" height="10" style="stroke:#303030;stroke-width:0.5;" width="15" x="857" y="224.59"/><rect fill="#E0D8B0" height="2" style="stroke:#303030;stroke-width:0.5;" width="4" x="855" y="226.59"/><rect fill="#E0D8B0" height="2" style="stroke:#303030;stroke-width:0.5;" width="4" x="855" y="230.59"/><text fill="#303030" font-family="sans-serif" font-size="14" lengthAdjust="spacing" textLength="98" x="754" y="252.5851">T2 products B</text></g><!--entity T3 products B--><g id="elem_T3 products B"><rect fill="#E0D8B0" height="46.2969" rx="2.5" ry="2.5" style="stroke:#303030;stroke-width:0.5;" width="138" x="912" y="219.59"/><rect fill="#E0D8B0" height="10" style="stroke:#303030;stroke-width:0.5;" width="15" x="1030" y="224.59"/><rect fill="#E0D8B0" height="2" style="stroke:#303030;stroke-width:0.5;" width="4" x="1028" y="226.59"/><rect fill="#E0D8B0" height="2" style="stroke:#303030;stroke-width:0.5;" width="4" x="1028" y="230.59"/><text fill="#303030" font-family="sans-serif" font-size="14" lengthAdjust="spacing" textLength="98" x="927" y="252.5851">T3 products B</text></g><!--entity T1--><g id="elem_T1"><rect fill="#E0D8B0" height="46.2969" rx="2.5" ry="2.5" style="stroke:#303030;stroke-width:0.5;" width="58" x="1085" y="7"/><rect fill="#E0D8B0" height="10" style="stroke:#303030;stroke-width:0.5;" width="15" x="1123" y="12"/><rect fill="#E0D8B0" height="2" style="stroke:#303030;stroke-width:0.5;" width="4" x="1121" y="14"/><rect fill="#E0D8B0" height="2" style="stroke:#303030;stroke-width:0.5;" width="4" x="1121" y="18"/><text fill="#303030" font-family="sans-serif" font-size="14" lengthAdjust="spacing" textLength="18" x="1100" y="39.9951">T1</text></g><!--entity T4--><g id="elem_T4"><rect fill="#E0D8B0" height="46.2969" rx="2.5" ry="2.5" style="stroke:#303030;stroke-width:0.5;" width="58" x="1108" y="113.29"/><rect fill="#E0D8B0" height="10" style="stroke:#303030;stroke-width:0.5;" width="15" x="1146" y="118.29"/><rect fill="#E0D8B0" height="2" style="stroke:#303030;stroke-width:0.5;" width="4" x="1144" y="120.29"/><rect fill="#E0D8B0" height="2" style="stroke:#303030;stroke-width:0.5;" width="4" x="1144" y="124.29"/><text fill="#303030" font-family="sans-serif" font-size="14" lengthAdjust="spacing" textLength="18" x="1123" y="146.2851">T4</text></g><!--entity T2--><g id="elem_T2"><rect fill="#E0D8B0" height="46.2969" rx="2.5" ry="2.5" style="stroke:#303030;stroke-width:0.5;" width="58" x="1178" y="7"/><rect fill="#E0D8B0" height="10" style="stroke:#303030;stroke-width:0.5;" width="15" x="1216" y="12"/><rect fill="#E0D8B0" height="2" style="stroke:#303030;stroke-width:0.5;" width="4" x="1214" y="14"/><rect fill="#E0D8B0" height="2" style="stroke:#303030;stroke-width:0.5;" width="4" x="1214" y="18"/><text fill="#303030" font-family="sans-serif" font-size="14" lengthAdjust="spacing" textLength="18" x="1193" y="39.9951">T2</text></g><!--entity T3--><g id="elem_T3"><rect fill="#E0D8B0" height="46.2969" rx="2.5" ry="2.5" style="stroke:#303030;stroke-width:0.5;" width="58" x="1271" y="7"/><rect fill="#E0D8B0" height="10" style="stroke:#303030;stroke-width:0.5;" width="15" x="1309" y="12"/><rect fill="#E0D8B0" height="2" style="stroke:#303030;stroke-width:0.5;" width="4" x="1307" y="14"/><rect fill="#E0D8B0" height="2" style="stroke:#303030;stroke-width:0.5;" width="4" x="1307" y="18"/><text fill="#303030" font-family="sans-serif" font-size="14" lengthAdjust="spacing" textLength="18" x="1286" y="39.9951">T3</text></g><!--entity T5--><g id="elem_T5"><rect fill="#E0D8B0" height="46.2969" rx="2.5" ry="2.5" style="stroke:#303030;stroke-width:0.5;" width="58" x="1237" y="219.59"/><rect fill="#E0D8B0" height="10" style="stroke:#303030;stroke-width:0.5;" width="15" x="1275" y="224.59"/><rect fill="#E0D8B0" height="2" style="stroke:#303030;stroke-width:0.5;" width="4" x="1273" y="226.59"/><rect fill="#E0D8B0" height="2" style="stroke:#303030;stroke-width:0.5;" width="4" x="1273" y="230.59"/><text fill="#303030" font-family="sans-serif" font-size="14" lengthAdjust="spacing" textLength="18" x="1252" y="252.5851">T5</text></g><!--entity T6--><g id="elem_T6"><rect fill="#E0D8B0" height="46.2969" rx="2.5" ry="2.5" style="stroke:#303030;stroke-width:0.5;" width="58" x="1166" y="325.89"/><rect fill="#E0D8B0" height="10" style="stroke:#303030;stroke-width:0.5;" width="15" x="1204" y="330.89"/><rect fill="#E0D8B0" height="2" style="stroke:#303030;stroke-width:0.5;" width="4" x="1202" y="332.89"/><rect fill="#E0D8B0" height="2" style="stroke:#303030;stroke-width:0.5;" width="4" x="1202" y="336.89"/><text fill="#303030" font-family="sans-serif" font-size="14" lengthAdjust="spacing" textLength="18" x="1181" y="358.8851">T6</text></g><!--entity X--><g id="elem_X"><rect fill="#E0D8B0" height="46.2969" rx="2.5" ry="2.5" style="stroke:#303030;stroke-width:0.5;" width="49" x="1330.5" y="325.89"/><rect fill="#E0D8B0" height="10" style="stroke:#303030;stroke-width:0.5;" width="15" x="1359.5" y="330.89"/><rect fill="#E0D8B0" height="2" style="stroke:#303030;stroke-width:0.5;" width="4" x="1357.5" y="332.89"/><rect fill="#E0D8B0" height="2" style="stroke:#303030;stroke-width:0.5;" width="4" x="1357.5" y="336.89"/><text fill="#303030" font-family="sans-serif" font-size="14" lengthAdjust="spacing" textLength="9" x="1345.5" y="358.8851">X</text></g><!--entity T7--><g id="elem_T7"><rect fill="#E0D8B0" height="46.2969" rx="2.5" ry="2.5" style="stroke:#303030;stroke-width:0.5;" width="58" x="1207" y="432.18"/><rect fill="#E0D8B0" height="10" style="stroke:#303030;stroke-width:0.5;" width="15" x="1245" y="437.18"/><rect fill="#E0D8B0" height="2" style="stroke:#303030;stroke-width:0.5;" width="4" x="1243" y="439.18"/><rect fill="#E0D8B0" height="2" style="stroke:#303030;stroke-width:0.5;" width="4" x="1243" y="443.18"/><text fill="#303030" font-family="sans-serif" font-size="14" lengthAdjust="spacing" textLength="18" x="1222" y="465.1751">T7</text></g><!--link ores to minerals--><g id="link_ores_minerals"><path d="M126.79,136.44 C138.06,136.44 143.33,136.44 154.6,136.44 " fill="none" id="ores-to-minerals" style="stroke:#FFC0A0;stroke-width:1.0;"/><polygon fill="#FFC0A0" points="160.6,136.44,151.6,132.44,155.6,136.44,151.6,140.44,160.6,136.44" style="stroke:#FFC0A0;stroke-width:1.0;"/></g><!--link minerals to alloys--><g id="link_minerals_alloys"><path d="M259.49,136.44 C270.88,136.44 276.27,136.44 287.66,136.44 " fill="none" id="minerals-to-alloys" style="stroke:#FFC0A0;stroke-width:1.0;"/><polygon fill="#FFC0A0" points="293.66,136.44,284.66,132.44,288.66,136.44,284.66,140.44,293.66,136.44" style="stroke:#FFC0A0;stroke-width:1.0;"/></g><!--link alloys to adv. alloys--><g id="link_alloys_adv. alloys"><path d="M372.3,136.44 C383.75,136.44 389.2,136.44 400.64,136.44 " fill="none" id="alloys-to-adv. alloys" style="stroke:#FFC0A0;stroke-width:1.0;"/><polygon fill="#FFC0A0" points="406.64,136.44,397.64,132.44,401.64,136.44,397.64,140.44,406.64,136.44" style="stroke:#FFC0A0;stroke-width:1.0;"/></g><!--link minerals to T1 products A--><g id="link_minerals_T1 products A"><path d="M190.04,160.07 C174.61,177.57 157.3207,197.1718 141.8907,214.6518 " fill="none" id="minerals-to-T1 products A" style="stroke:#FFC0A0;stroke-width:1.0;"/><polygon fill="#FFC0A0" points="137.92,219.15,146.8748,215.0498,141.2289,215.4015,140.8772,209.7556,137.92,219.15" style="stroke:#FFC0A0;stroke-width:1.0;"/></g><!--link T1 products A to T2 products A--><g id="link_T1 products A_T2 products A"><path d="M186.87,242.74 C198.28,242.74 203.7,242.74 215.11,242.74 " fill="none" id="T1 products A-to-T2 products A" style="stroke:#FFC0A0;stroke-width:1.0;stroke-dasharray:7.0,7.0;"/><polygon fill="#FFC0A0" points="221.11,242.74,212.11,238.74,216.11,242.74,212.11,246.74,221.11,242.74" style="stroke:#FFC0A0;stroke-width:1.0;"/></g><!--link minerals to T2 products A--><g id="link_minerals_T2 products A"><path d="M227.36,160.07 C240.78,177.57 255.6062,196.9108 269.0262,214.3908 " fill="none" id="minerals-to-T2 products A" style="stroke:#FFC0A0;stroke-width:1.0;stroke-dasharray:7.0,7.0;"/><polygon fill="#FFC0A0" points="272.68,219.15,270.3721,209.5754,269.6352,215.184,264.0265,214.4471,272.68,219.15" style="stroke:#FFC0A0;stroke-width:1.0;"/></g><!--link alloys to T2 products A--><g id="link_alloys_T2 products A"><path d="M323.67,160.07 C316.46,177.57 308.8078,196.1233 301.5978,213.6033 " fill="none" id="alloys-to-T2 products A" style="stroke:#FFC0A0;stroke-width:1.0;"/><polygon fill="#FFC0A0" points="299.31,219.15,306.4396,212.3552,301.2165,214.5278,299.044,209.3047,299.31,219.15" style="stroke:#FFC0A0;stroke-width:1.0;"/></g><!--link T2 products A to T3 products A--><g id="link_T2 products A_T3 products A"><path d="M358.87,242.74 C370.28,242.74 375.7,242.74 387.11,242.74 " fill="none" id="T2 products A-to-T3 products A" style="stroke:#FFC0A0;stroke-width:1.0;stroke-dasharray:7.0,7.0;"/><polygon fill="#FFC0A0" points="393.11,242.74,384.11,238.74,388.11,242.74,384.11,246.74,393.11,242.74" style="stroke:#FFC0A0;stroke-width:1.0;"/></g><!--link alloys to T3 products A--><g id="link_alloys_T3 products A"><path d="M360.99,160.07 C382.63,177.57 407.7742,197.8977 429.3942,215.3777 " fill="none" id="alloys-to-T3 products A" style="stroke:#FFC0A0;stroke-width:1.0;stroke-dasharray:7.0,7.0;"/><polygon fill="#FFC0A0" points="434.06,219.15,429.5762,210.381,430.1718,216.0064,424.5464,216.602,434.06,219.15" style="stroke:#FFC0A0;stroke-width:1.0;"/></g><!--link adv. alloys to T3 products A--><g id="link_adv. alloys_T3 products A"><path d="M462,160.07 C462,177.57 462,195.67 462,213.15 " fill="none" id="adv. alloys-to-T3 products A" style="stroke:#FFC0A0;stroke-width:1.0;"/><polygon fill="#FFC0A0" points="462,219.15,466,210.15,462,214.15,458,210.15,462,219.15" style="stroke:#FFC0A0;stroke-width:1.0;"/></g><!--link organics to organics r1--><g id="link_organics_organics r1"><path d="M725.99,136.44 C737.38,136.44 742.76,136.44 754.14,136.44 " fill="none" id="organics-to-organics r1" style="stroke:#FFC0A0;stroke-width:1.0;"/><polygon fill="#FFC0A0" points="760.14,136.44,751.14,132.44,755.14,136.44,751.14,140.44,760.14,136.44" style="stroke:#FFC0A0;stroke-width:1.0;"/></g><!--link organics r1 to organics r2--><g id="link_organics r1_organics r2"><path d="M877.85,136.44 C892.63,136.44 901.4,136.44 916.17,136.44 " fill="none" id="organics r1-to-organics r2" style="stroke:#FFC0A0;stroke-width:1.0;"/><polygon fill="#FFC0A0" points="922.17,136.44,913.17,132.44,917.17,136.44,913.17,140.44,922.17,136.44" style="stroke:#FFC0A0;stroke-width:1.0;"/></g><!--link organics to T1 products B--><g id="link_organics_T1 products B"><path d="M667.1,160.07 C660.23,177.57 652.9447,196.0858 646.0747,213.5658 " fill="none" id="organics-to-T1 products B" style="stroke:#FFC0A0;stroke-width:1.0;"/><polygon fill="#FFC0A0" points="643.88,219.15,650.8949,212.2368,645.7089,214.4965,643.4493,209.3106,643.88,219.15" style="stroke:#FFC0A0;stroke-width:1.0;"/></g><!--link organics to T2 products B--><g id="link_organics_T2 products B"><path d="M704.64,160.07 C726.78,177.57 752.5824,197.9499 774.7024,215.4299 " fill="none" id="organics-to-T2 products B" style="stroke:#FFC0A0;stroke-width:1.0;stroke-dasharray:7.0,7.0;"/><polygon fill="#FFC0A0" points="779.41,219.15,774.8287,210.4315,775.487,216.0499,769.8686,216.7083,779.41,219.15" style="stroke:#FFC0A0;stroke-width:1.0;"/></g><!--link organics r1 to T2 products B--><g id="link_organics r1_T2 products B"><path d="M816.61,160.07 C814.77,177.57 812.8615,195.7033 811.0115,213.1833 " fill="none" id="organics r1-to-T2 products B" style="stroke:#FFC0A0;stroke-width:1.0;"/><polygon fill="#FFC0A0" points="810.38,219.15,815.305,210.621,810.9062,214.1778,807.3494,209.779,810.38,219.15" style="stroke:#FFC0A0;stroke-width:1.0;"/></g><!--link T1 products B to T2 products B--><g id="link_T1 products B_T2 products B"><path d="M704.27,242.74 C715.75,242.74 721.23,242.74 732.71,242.74 " fill="none" id="T1 products B-to-T2 products B" style="stroke:#FFC0A0;stroke-width:1.0;stroke-dasharray:7.0,7.0;"/><polygon fill="#FFC0A0" points="738.71,242.74,729.71,238.74,733.71,242.74,729.71,246.74,738.71,242.74" style="stroke:#FFC0A0;stroke-width:1.0;"/></g><!--link organics r1 to T3 products B--><g id="link_organics r1_T3 products B"><path d="M854.15,160.07 C881.32,177.57 913.7146,198.4228 940.8746,215.9028 " fill="none" id="organics r1-to-T3 products B" style="stroke:#FFC0A0;stroke-width:1.0;stroke-dasharray:7.0,7.0;"/><polygon fill="#FFC0A0" points="945.92,219.15,940.5167,210.9157,941.7155,216.444,936.1871,217.6428,945.92,219.15" style="stroke:#FFC0A0;stroke-width:1.0;"/></g><!--link organics r2 to T3 products B--><g id="link_organics r2_T3 products B"><path d="M981,160.07 C981,177.57 981,195.67 981,213.15 " fill="none" id="organics r2-to-T3 products B" style="stroke:#FFC0A0;stroke-width:1.0;"/><polygon fill="#FFC0A0" points="981,219.15,985,210.15,981,214.15,977,210.15,981,219.15" style="stroke:#FFC0A0;stroke-width:1.0;"/></g><!--link T2 products B to T3 products B--><g id="link_T2 products B_T3 products B"><path d="M877.27,242.74 C888.75,242.74 894.23,242.74 905.71,242.74 " fill="none" id="T2 products B-to-T3 products B" style="stroke:#FFC0A0;stroke-width:1.0;stroke-dasharray:7.0,7.0;"/><polygon fill="#FFC0A0" points="911.71,242.74,902.71,238.74,906.71,242.74,902.71,246.74,911.71,242.74" style="stroke:#FFC0A0;stroke-width:1.0;"/></g><!--link T1 to T4--><g id="link_T1_T4"><path d="M1118.99,53.77 C1122.85,71.27 1126.8662,89.5111 1130.7262,106.9911 " fill="none" id="T1-to-T4" style="stroke:#FFC0A0;stroke-width:1.0;stroke-dasharray:7.0,7.0;"/><polygon fill="#FFC0A0" points="1132.02,112.85,1133.9852,103.1992,1130.9419,107.9676,1126.1734,104.9242,1132.02,112.85" style="stroke:#FFC0A0;stroke-width:1.0;"/></g><!--link T2 to T4--><g id="link_T2_T4"><path d="M1191.81,53.77 C1180.07,71.27 1167.2333,90.3878 1155.5033,107.8678 " fill="none" id="T2-to-T4" style="stroke:#FFC0A0;stroke-width:1.0;stroke-dasharray:7.0,7.0;"/><polygon fill="#FFC0A0" points="1152.16,112.85,1160.4964,107.6056,1154.9461,108.6982,1153.8535,103.1478,1152.16,112.85" style="stroke:#FFC0A0;stroke-width:1.0;"/></g><!--link T3 to T4--><g id="link_T3_T4"><path d="M1270.86,49.79 C1241.37,68.66 1201.0842,94.4366 1171.4942,113.3666 " fill="none" id="T3-to-T4" style="stroke:#FFC0A0;stroke-width:1.0;"/><polygon fill="#FFC0A0" points="1166.44,116.6,1176.1769,115.1194,1170.6518,113.9055,1171.8657,108.3804,1166.44,116.6" style="stroke:#FFC0A0;stroke-width:1.0;"/></g><!--link T2 to T5--><g id="link_T2_T5"><path d="M1213.31,53.68 C1224.67,94.21 1246.7915,173.1724 1258.1115,213.5824 " fill="none" id="T2-to-T5" style="stroke:#FFC0A0;stroke-width:1.0;stroke-dasharray:7.0,7.0;"/><polygon fill="#FFC0A0" points="1259.73,219.36,1261.154,209.6146,1258.3813,214.5453,1253.4506,211.7726,1259.73,219.36" style="stroke:#FFC0A0;stroke-width:1.0;"/></g><!--link T3 to T5--><g id="link_T3_T5"><path d="M1296.36,53.68 C1289.82,94.21 1277.0971,173.0268 1270.5671,213.4368 " fill="none" id="T3-to-T5" style="stroke:#FFC0A0;stroke-width:1.0;stroke-dasharray:7.0,7.0;"/><polygon fill="#FFC0A0" points="1269.61,219.36,1274.9945,211.1134,1270.4076,214.424,1267.0969,209.8372,1269.61,219.36" style="stroke:#FFC0A0;stroke-width:1.0;"/></g><!--link T4 to T5--><g id="link_T4_T5"><path d="M1164.99,160.07 C1186.63,177.57 1211.7742,197.8977 1233.3942,215.3777 " fill="none" id="T4-to-T5" style="stroke:#FFC0A0;stroke-width:1.0;"/><polygon fill="#FFC0A0" points="1238.06,219.15,1233.5762,210.381,1234.1718,216.0064,1228.5464,216.602,1238.06,219.15" style="stroke:#FFC0A0;stroke-width:1.0;"/></g><!--link T3 to T6--><g id="link_T3_T6"><path d="M1308.48,53.77 C1323.43,97.59 1349.56,195.88 1313,265.89 C1294.45,301.4 1258.2807,322.2737 1229.7707,334.6937 " fill="none" id="T3-to-T6" style="stroke:#FFC0A0;stroke-width:1.0;stroke-dasharray:7.0,7.0;"/><polygon fill="#FFC0A0" points="1224.27,337.09,1234.1186,337.1627,1228.8539,335.0931,1230.9235,329.8284,1224.27,337.09" style="stroke:#FFC0A0;stroke-width:1.0;"/></g><!--link T4 to T6--><g id="link_T4_T6"><path d="M1143.21,159.98 C1154.37,200.51 1176.1171,279.4553 1187.2471,319.8753 " fill="none" id="T4-to-T6" style="stroke:#FFC0A0;stroke-width:1.0;stroke-dasharray:7.0,7.0;"/><polygon fill="#FFC0A0" points="1188.84,325.66,1190.3072,315.921,1187.5126,320.8394,1182.5942,318.0449,1188.84,325.66" style="stroke:#FFC0A0;stroke-width:1.0;"/></g><!--link T5 to T6--><g id="link_T5_T6"><path d="M1250.59,266.37 C1238.68,283.86 1225.6565,303.0102 1213.7565,320.4902 " fill="none" id="T5-to-T6" style="stroke:#FFC0A0;stroke-width:1.0;"/><polygon fill="#FFC0A0" points="1210.38,325.45,1218.7513,320.2614,1213.1937,321.3169,1212.1382,315.7594,1210.38,325.45" style="stroke:#FFC0A0;stroke-width:1.0;"/></g><!--link X to T7--><g id="link_X_T7"><path d="M1330.05,371.9 C1310.02,389.46 1286.491,410.0739 1266.251,427.8239 " fill="none" id="X-to-T7" style="stroke:#FFC0A0;stroke-width:1.0;"/><polygon fill="#FFC0A0" points="1261.74,431.78,1271.1439,428.8532,1265.4992,428.4833,1265.8692,422.8385,1261.74,431.78" style="stroke:#FFC0A0;stroke-width:1.0;"/></g><!--link T4 to T7--><g id="link_T4_T7"><path d="M1132.72,159.77 C1125.53,203.08 1114.85,300.53 1148,372.18 C1160.46,399.12 1181.2816,417.971 1201.7116,432.511 " fill="none" id="T4-to-T7" style="stroke:#FFC0A0;stroke-width:1.0;stroke-dasharray:7.0,7.0;"/><polygon fill="#FFC0A0" points="1206.6,435.99,1201.5868,427.5125,1202.5264,433.0908,1196.9481,434.0303,1206.6,435.99" style="stroke:#FFC0A0;stroke-width:1.0;"/></g><!--link T5 to T7--><g id="link_T5_T7"><path d="M1262.79,266.28 C1257.02,306.81 1245.785,385.5998 1240.035,426.0198 " fill="none" id="T5-to-T7" style="stroke:#FFC0A0;stroke-width:1.0;stroke-dasharray:7.0,7.0;"/><polygon fill="#FFC0A0" points="1239.19,431.96,1244.4177,423.6131,1239.8942,427.0098,1236.4974,422.4864,1239.19,431.96" style="stroke:#FFC0A0;stroke-width:1.0;"/></g><!--link T6 to T7--><g id="link_T6_T7"><path d="M1203.9,372.67 C1210.77,390.16 1218.0553,408.6758 1224.9253,426.1558 " fill="none" id="T6-to-T7" style="stroke:#FFC0A0;stroke-width:1.0;"/><polygon fill="#FFC0A0" points="1227.12,431.74,1227.5507,421.9006,1225.2911,427.0865,1220.1051,424.8268,1227.12,431.74" style="stroke:#FFC0A0;stroke-width:1.0;"/></g><!--SRC=[TP91RiCW44Ntd6AQTK8LnqbshPepT54fiYeQY8M2mGLJARUliS41ux0nC__pnipmmkL5MCe0lzf6V9iRbotHf348dPLcfWAtDczmRhXacWXJeSTs48WGwkxIVkFzXFvX21gIgcFGgHRK5HmNWL-jLZyOQZOGmKhDhZsTJhfHWjCr2FvhtRSc1YCcAJWWIdx55VtSEY2rbyx0HrzsbW3iF4NYYH1uIOvkjSbbD4l0M6BtZD4llEY8kkKBfOvX7ZMH_39od2KaG6yhb4GpkPXDO1LvLrEh6Qunz0sxAaNNKxPFS4cjwVGTZ6rRmPbvZqRmX5lat8PH4t4BnyMBpEYgsLXFLQ9dCpjbhTWiE58YB41cb6ngQPrYOMf3dIAlarg6HnhuvN0aYNQ1N8xUITrxDOhAuDsFtaazU3MAzi5xS7VzgiBxFYRMexT6qQ5wEFy1]--></g></svg>