<svg xmlns="http://www.w3.org/2000/svg" xmlns:xlink="http://www.w3.org/1999/xlink" contentStyleType="text/css" height="847px" preserveAspectRatio="none" style="width:604px;height:847px;background:#303030;" version="1.1" viewBox="0 0 604 847" width="604px" zoomAndPan="magnify"><defs/><g><rect fill="#303030" height="847" style="stroke:none;stroke-width:1.0;" width="604" x="0" y="0"/><rect fill="#303030" height="289.7383" style="stroke:#E0D8B0;stroke-width:1.5;" width="417" x="11" y="11"/><path d="M88,11 L88,20.2969 L78,30.2969 L11,30.2969 " fill="none" style="stroke:#E0D8B0;stroke-width:1.5;"/><text fill="#E0D8B0" font-family="sans-serif" font-size="14" lengthAdjust="spacing" textLength="67" x="14" y="24.9951">BEGINING</text><path d="M31,145.668 L31,170.8008 L280,170.8008 L280,155.668 L270,145.668 L31,145.668 " fill="#D0C080" style="stroke:#303030;stroke-width:1.0;"/><path d="M270,145.668 L270,155.668 L280,155.668 L270,145.668 " fill="#D0C080" style="stroke:#303030;stroke-width:1.0;"/><text fill="#303030" font-family="sans-serif" font-size="13" lengthAdjust="spacing" textLength="228" x="37" y="162.7349">Can be some other scenario too lol.</text><ellipse cx="354" cy="50.2969" fill="#E0D8B0" rx="10" ry="10" style="stroke:#222222;stroke-width:1.0;"/><rect fill="#E0D8B0" height="33.9688" rx="12.5" ry="12.5" style="stroke:#303030;stroke-width:0.5;" width="128" x="290" y="80.2969"/><text fill="#303030" font-family="sans-serif" font-size="12" lengthAdjust="spacing" textLength="108" x="300" y="101.4355">intro to the world</text><rect fill="#E0D8B0" height="33.9688" rx="12.5" ry="12.5" style="stroke:#303030;stroke-width:0.5;" width="127" x="290.5" y="134.2656"/><text fill="#303030" font-family="sans-serif" font-size="12" lengthAdjust="spacing" textLength="107" x="300.5" y="155.4043">wake up disaster</text><rect fill="#E0D8B0" height="33.9688" rx="12.5" ry="12.5" style="stroke:#303030;stroke-width:0.5;" width="96" x="306" y="200.8008"/><text fill="#303030" font-family="sans-serif" font-size="12" lengthAdjust="spacing" textLength="76" x="316" y="221.9395">choose ship</text><rect fill="#E0D8B0" height="33.9688" rx="12.5" ry="12.5" style="stroke:#303030;stroke-width:0.5;" width="66" x="321" y="254.7695"/><text fill="#303030" font-family="sans-serif" font-size="12" lengthAdjust="spacing" textLength="46" x="331" y="275.9082">escape</text><rect fill="#303030" height="375.8511" style="stroke:#E0D8B0;stroke-width:1.5;" width="496" x="97" y="310.7383"/><path d="M184,310.7383 L184,320.0352 L174,330.0352 L97,330.0352 " fill="none" style="stroke:#E0D8B0;stroke-width:1.5;"/><text fill="#E0D8B0" font-family="sans-serif" font-size="14" lengthAdjust="spacing" textLength="77" x="100" y="324.7334">TUTORIALS</text><rect fill="#E0D8B0" height="33.9688" rx="12.5" ry="12.5" style="stroke:#303030;stroke-width:0.5;" width="185" x="261.5" y="347.0352"/><text fill="#303030" font-family="sans-serif" font-size="12" lengthAdjust="spacing" textLength="165" x="271.5" y="368.1738">get minimal cargo storage</text><line style="stroke:#FFC0A0;stroke-width:1.5;" x1="225.5" x2="448.5" y1="456.7144" y2="456.7144"/><rect fill="#E0D8B0" height="33.9688" rx="12.5" ry="12.5" style="stroke:#303030;stroke-width:0.5;" width="94" x="178.5" y="476.7144"/><text fill="#303030" font-family="sans-serif" font-size="12" lengthAdjust="spacing" textLength="74" x="188.5" y="497.853">mining intro</text><rect fill="#E0D8B0" height="33.9688" rx="12.5" ry="12.5" style="stroke:#303030;stroke-width:0.5;" width="144" x="153.5" y="537.6675"/><text fill="#303030" font-family="sans-serif" font-size="12" lengthAdjust="spacing" textLength="124" x="163.5" y="558.8062">rent production line</text><rect fill="#E0D8B0" height="33.9688" rx="12.5" ry="12.5" style="stroke:#303030;stroke-width:0.5;" width="161" x="145" y="598.6206"/><text fill="#303030" font-family="sans-serif" font-size="12" lengthAdjust="spacing" textLength="141" x="155" y="619.7593">make e.g. basic ammo</text><rect fill="#E0D8B0" height="47.9375" rx="12.5" ry="12.5" style="stroke:#303030;stroke-width:0.5;" width="229" x="334" y="530.6831"/><text fill="#303030" font-family="sans-serif" font-size="12" lengthAdjust="spacing" textLength="182" x="344" y="551.8218">minimal combat mission intro</text><text fill="#303030" font-family="sans-serif" font-size="12" lengthAdjust="spacing" textLength="209" x="344" y="565.7905">(e.g. clear derelict rogue drones)</text><line style="stroke:#FFC0A0;stroke-width:1.5;" x1="225.5" x2="448.5" y1="652.5894" y2="652.5894"/><polygon fill="#E0D8B0" points="322,401.0039,386,401.0039,398,413.0039,386,425.0039,322,425.0039,310,413.0039,322,401.0039" style="stroke:#303030;stroke-width:0.5;"/><text fill="#E0D8B0" font-family="sans-serif" font-size="11" lengthAdjust="spacing" textLength="20" x="358" y="435.2144">yes</text><text fill="#303030" font-family="sans-serif" font-size="11" lengthAdjust="spacing" textLength="64" x="322" y="416.812">do tutorial?</text><rect fill="#E0D8B0" height="33.9688" rx="12.5" ry="12.5" style="stroke:#303030;stroke-width:0.5;" width="224" x="242" y="706.5894"/><text fill="#303030" font-family="sans-serif" font-size="12" lengthAdjust="spacing" textLength="204" x="252" y="727.728">training wheels start to come off</text><rect fill="#E0D8B0" height="33.9688" rx="12.5" ry="12.5" style="stroke:#303030;stroke-width:0.5;" width="66" x="321" y="760.5581"/><text fill="#303030" font-family="sans-serif" font-size="12" lengthAdjust="spacing" textLength="46" x="331" y="781.6968">wheee!</text><ellipse cx="354" cy="825.5269" fill="none" rx="11" ry="11" style="stroke:#E0D8B0;stroke-width:1.0;"/><ellipse cx="354" cy="825.5269" fill="#222222" rx="6" ry="6" style="stroke:#E0D8B0;stroke-width:1.0;"/><line style="stroke:#FFC0A0;stroke-width:1.0;" x1="354" x2="354" y1="60.2969" y2="80.2969"/><polygon fill="#FFC0A0" points="350,70.2969,354,80.2969,358,70.2969,354,74.2969" style="stroke:#FFC0A0;stroke-width:1.0;"/><line style="stroke:#FFC0A0;stroke-width:1.0;" x1="354" x2="354" y1="114.2656" y2="134.2656"/><polygon fill="#FFC0A0" points="350,124.2656,354,134.2656,358,124.2656,354,128.2656" style="stroke:#FFC0A0;stroke-width:1.0;"/><line style="stroke:#FFC0A0;stroke-width:1.0;" x1="354" x2="354" y1="168.2344" y2="200.8008"/><polygon fill="#FFC0A0" points="350,190.8008,354,200.8008,358,190.8008,354,194.8008" style="stroke:#FFC0A0;stroke-width:1.0;"/><line style="stroke:#FFC0A0;stroke-width:1.0;" x1="354" x2="354" y1="234.7695" y2="254.7695"/><polygon fill="#FFC0A0" points="350,244.7695,354,254.7695,358,244.7695,354,248.7695" style="stroke:#FFC0A0;stroke-width:1.0;"/><line style="stroke:#FFC0A0;stroke-width:1.0;" x1="225.5" x2="225.5" y1="510.6831" y2="537.6675"/><polygon fill="#FFC0A0" points="221.5,527.6675,225.5,537.6675,229.5,527.6675,225.5,531.6675" style="stroke:#FFC0A0;stroke-width:1.0;"/><line style="stroke:#FFC0A0;stroke-width:1.0;" x1="225.5" x2="225.5" y1="571.6362" y2="598.6206"/><polygon fill="#FFC0A0" points="221.5,588.6206,225.5,598.6206,229.5,588.6206,225.5,592.6206" style="stroke:#FFC0A0;stroke-width:1.0;"/><line style="stroke:#FFC0A0;stroke-width:1.0;" x1="225.5" x2="225.5" y1="458.2144" y2="476.7144"/><polygon fill="#FFC0A0" points="221.5,466.7144,225.5,476.7144,229.5,466.7144,225.5,470.7144" style="stroke:#FFC0A0;stroke-width:1.0;"/><line style="stroke:#FFC0A0;stroke-width:1.0;" x1="448.5" x2="448.5" y1="458.2144" y2="530.6831"/><polygon fill="#FFC0A0" points="444.5,520.6831,448.5,530.6831,452.5,520.6831,448.5,524.6831" style="stroke:#FFC0A0;stroke-width:1.0;"/><line style="stroke:#FFC0A0;stroke-width:1.0;" x1="225.5" x2="225.5" y1="632.5894" y2="652.5894"/><polygon fill="#FFC0A0" points="221.5,642.5894,225.5,652.5894,229.5,642.5894,225.5,646.5894" style="stroke:#FFC0A0;stroke-width:1.0;"/><line style="stroke:#FFC0A0;stroke-width:1.0;" x1="448.5" x2="448.5" y1="578.6206" y2="652.5894"/><polygon fill="#FFC0A0" points="444.5,642.5894,448.5,652.5894,452.5,642.5894,448.5,646.5894" style="stroke:#FFC0A0;stroke-width:1.0;"/><line style="stroke:#FFC0A0;stroke-width:1.0;" x1="354" x2="354" y1="425.0039" y2="456.7144"/><polygon fill="#FFC0A0" points="350,446.7144,354,456.7144,358,446.7144,354,450.7144" style="stroke:#FFC0A0;stroke-width:1.0;"/><line style="stroke:#FFC0A0;stroke-width:1.0;" x1="354" x2="354" y1="654.0894" y2="662.5894"/><line style="stroke:#FFC0A0;stroke-width:1.0;" x1="354" x2="577" y1="662.5894" y2="662.5894"/><polygon fill="#FFC0A0" points="573,546.2495,577,536.2495,581,546.2495,577,542.2495" style="stroke:#FFC0A0;stroke-width:1.0;"/><line style="stroke:#FFC0A0;stroke-width:1.0;" x1="577" x2="577" y1="413.0039" y2="662.5894"/><line style="stroke:#FFC0A0;stroke-width:1.0;" x1="577" x2="398" y1="413.0039" y2="413.0039"/><polygon fill="#FFC0A0" points="408,409.0039,398,413.0039,408,417.0039,404,413.0039" style="stroke:#FFC0A0;stroke-width:1.0;"/><line style="stroke:#FFC0A0;stroke-width:1.0;" x1="310" x2="119" y1="413.0039" y2="413.0039"/><polygon fill="#FFC0A0" points="115,532.2495,119,542.2495,123,532.2495,119,536.2495" style="stroke:#FFC0A0;stroke-width:1.0;"/><line style="stroke:#FFC0A0;stroke-width:1.0;" x1="119" x2="119" y1="413.0039" y2="674.5894"/><line style="stroke:#FFC0A0;stroke-width:1.0;" x1="119" x2="354" y1="674.5894" y2="674.5894"/><line style="stroke:#FFC0A0;stroke-width:1.0;" x1="354" x2="354" y1="674.5894" y2="706.5894"/><polygon fill="#FFC0A0" points="350,696.5894,354,706.5894,358,696.5894,354,700.5894" style="stroke:#FFC0A0;stroke-width:1.0;"/><line style="stroke:#FFC0A0;stroke-width:1.0;" x1="354" x2="354" y1="381.0039" y2="401.0039"/><polygon fill="#FFC0A0" points="350,391.0039,354,401.0039,358,391.0039,354,395.0039" style="stroke:#FFC0A0;stroke-width:1.0;"/><line style="stroke:#FFC0A0;stroke-width:1.0;" x1="354" x2="354" y1="288.7383" y2="347.0352"/><polygon fill="#FFC0A0" points="350,337.0352,354,347.0352,358,337.0352,354,341.0352" style="stroke:#FFC0A0;stroke-width:1.0;"/><line style="stroke:#FFC0A0;stroke-width:1.0;" x1="354" x2="354" y1="740.5581" y2="760.5581"/><polygon fill="#FFC0A0" points="350,750.5581,354,760.5581,358,750.5581,354,754.5581" style="stroke:#FFC0A0;stroke-width:1.0;"/><line style="stroke:#FFC0A0;stroke-width:1.0;" x1="354" x2="354" y1="794.5269" y2="814.5269"/><polygon fill="#FFC0A0" points="350,804.5269,354,814.5269,358,804.5269,354,808.5269" style="stroke:#FFC0A0;stroke-width:1.0;"/><!--SRC=[JP4zJmCn38RdvbUuMrdAVZSWGAYgX8e4PKPkphspciIdEASA8VuxJhgG9Oa_NZzvi-Ramp8GRE-N6Bxqmcd6Z56TixrmOKdmzBBR7_Q77VouSn0id4P8KgY3Pqnm8b29158cog2U4cOMA28G96oT5XDo7QUIQnIi3AwImz2xxeeNWcM6WHMrKBQGdqJK92UUxKRgSQRU_VxdENuUtzxtZwyV1jIDL21oueW1FEPHG8ja7At9NISE19l1XYuMP0mFTy0Acs_IExVIEN1ngrLN- -rD3R6lWKofm9nbM7oR63XHIyGAJDjn2oTKze0nrewc13WY9mUsRf8DIU89Aw5g5MeZtAhMR9gC3uGP1ieKs1V8CYu4GvPaX2PCQO0RfftQSyoAhcIy4Lydeg3GBAxU-lOHvtErrbAqxir-cVy0]--></g></svg>