<svg xmlns="http://www.w3.org/2000/svg" xmlns:xlink="http://www.w3.org/1999/xlink" contentStyleType="text/css" height="768px" preserveAspectRatio="none" style="width:1220px;height:768px;background:#303030;" version="1.1" viewBox="0 0 1220 768" width="1220px" zoomAndPan="magnify"><defs/><g><rect fill="#303030" height="768" style="stroke:none;stroke-width:1.0;" width="1220" x="0" y="0"/><rect fill="#303030" height="32.2969" rx="10" ry="10" style="stroke:#E0D8B0;stroke-width:1.5;" width="83" x="418" y="367.043"/><text fill="#E0D8B0" font-family="sans-serif" font-size="14" font-weight="bold" lengthAdjust="spacing" textLength="67" x="426" y="388.0381">modules</text><rect fill="#F8F0E0" height="32.2969" rx="10" ry="10" style="stroke:#303030;stroke-width:1.5;" width="154" x="539" y="367.043"/><text fill="#000000" font-family="sans-serif" font-size="14" lengthAdjust="spacing" textLength="63" x="547" y="388.0381">weapons</text><text fill="#000000" font-family="sans-serif" font-size="14" lengthAdjust="spacing" textLength="4" x="610" y="388.0381">&#160;</text><text fill="#000000" font-family="sans-serif" font-size="14" lengthAdjust="spacing" textLength="5" x="614" y="388.0381">/</text><text fill="#000000" font-family="sans-serif" font-size="14" lengthAdjust="spacing" textLength="4" x="619" y="388.0381">&#160;</text><text fill="#000000" font-family="sans-serif" font-size="14" lengthAdjust="spacing" textLength="62" x="623" y="388.0381">offensive</text><rect fill="#D0C080" height="32.2969" rx="10" ry="10" style="stroke:#303030;stroke-width:1.5;" width="106" x="731" y="14"/><text fill="#000000" font-family="sans-serif" font-size="14" lengthAdjust="spacing" textLength="59" x="739" y="34.9951">machine</text><text fill="#000000" font-family="sans-serif" font-size="14" lengthAdjust="spacing" textLength="4" x="798" y="34.9951">&#160;</text><text fill="#000000" font-family="sans-serif" font-size="14" lengthAdjust="spacing" textLength="27" x="802" y="34.9951">gun</text><rect fill="#80C080" height="32.2969" rx="10" ry="10" style="stroke:#303030;stroke-width:1.5;" width="86" x="875" y="14"/><text fill="#000000" font-family="sans-serif" font-size="14" lengthAdjust="spacing" textLength="23" x="883" y="34.9951">MG</text><text fill="#000000" font-family="sans-serif" font-size="14" lengthAdjust="spacing" textLength="4" x="906" y="34.9951">&#160;</text><text fill="#000000" font-family="sans-serif" font-size="14" lengthAdjust="spacing" textLength="43" x="910" y="34.9951">ammo</text><path d="M837,30.1484 L847,30.1484 C862,30.1484 850,30.1484 865,30.1484 L875,30.1484 " fill="none" style="stroke:#FFC0A0;stroke-width:1.0;"/><path d="M693,383.1914 L703,383.1914 C718,383.1914 706,30.1484 721,30.1484 L731,30.1484 " fill="none" style="stroke:#FFC0A0;stroke-width:1.0;"/><rect fill="#D0C080" height="32.2969" rx="10" ry="10" style="stroke:#303030;stroke-width:1.5;" width="66" x="731" y="94.5938"/><text fill="#000000" font-family="sans-serif" font-size="14" lengthAdjust="spacing" textLength="19" x="739" y="115.5889">rail</text><text fill="#000000" font-family="sans-serif" font-size="14" lengthAdjust="spacing" textLength="4" x="758" y="115.5889">&#160;</text><text fill="#000000" font-family="sans-serif" font-size="14" lengthAdjust="spacing" textLength="27" x="762" y="115.5889">gun</text><rect fill="#80C080" height="32.2969" rx="10" ry="10" style="stroke:#303030;stroke-width:1.5;" width="73" x="835" y="54.2969"/><text fill="#000000" font-family="sans-serif" font-size="14" lengthAdjust="spacing" textLength="57" x="843" y="75.292">features</text><rect fill="#80C0C0" height="32.2969" rx="10" ry="10" style="stroke:#303030;stroke-width:1.5;" width="117" x="946" y="54.2969"/><text fill="#000000" font-family="sans-serif" font-size="14" lengthAdjust="spacing" textLength="57" x="954" y="75.292">extreme</text><text fill="#000000" font-family="sans-serif" font-size="14" lengthAdjust="spacing" textLength="4" x="1011" y="75.292">&#160;</text><text fill="#000000" font-family="sans-serif" font-size="14" lengthAdjust="spacing" textLength="40" x="1015" y="75.292">range</text><path d="M908,70.4453 L918,70.4453 C933,70.4453 921,70.4453 936,70.4453 L946,70.4453 " fill="none" style="stroke:#FFC0A0;stroke-width:1.0;"/><path d="M797,110.7422 L807,110.7422 C822,110.7422 810,70.4453 825,70.4453 L835,70.4453 " fill="none" style="stroke:#FFC0A0;stroke-width:1.0;"/><rect fill="#80C080" height="32.2969" rx="10" ry="10" style="stroke:#303030;stroke-width:1.5;" width="43" x="835" y="94.5938"/><text fill="#000000" font-family="sans-serif" font-size="14" lengthAdjust="spacing" textLength="27" x="843" y="115.5889">rails</text><path d="M797,110.7422 L807,110.7422 C822,110.7422 810,110.7422 825,110.7422 L835,110.7422 " fill="none" style="stroke:#FFC0A0;stroke-width:1.0;"/><rect fill="#80C080" height="32.2969" rx="10" ry="10" style="stroke:#303030;stroke-width:1.5;" width="112" x="835" y="134.8906"/><text fill="#000000" font-family="sans-serif" font-size="14" lengthAdjust="spacing" textLength="21" x="843" y="155.8857">RG</text><text fill="#000000" font-family="sans-serif" font-size="14" lengthAdjust="spacing" textLength="4" x="864" y="155.8857">&#160;</text><text fill="#000000" font-family="sans-serif" font-size="14" lengthAdjust="spacing" textLength="71" x="868" y="155.8857">projectiles</text><path d="M797,110.7422 L807,110.7422 C822,110.7422 810,151.0391 825,151.0391 L835,151.0391 " fill="none" style="stroke:#FFC0A0;stroke-width:1.0;"/><path d="M693,383.1914 L703,383.1914 C718,383.1914 706,110.7422 721,110.7422 L731,110.7422 " fill="none" style="stroke:#FFC0A0;stroke-width:1.0;"/><rect fill="#D0C080" height="32.2969" rx="10" ry="10" style="stroke:#303030;stroke-width:1.5;" width="103" x="731" y="175.1875"/><text fill="#000000" font-family="sans-serif" font-size="14" lengthAdjust="spacing" textLength="31" x="739" y="196.1826">auto</text><text fill="#000000" font-family="sans-serif" font-size="14" lengthAdjust="spacing" textLength="4" x="770" y="196.1826">&#160;</text><text fill="#000000" font-family="sans-serif" font-size="14" lengthAdjust="spacing" textLength="52" x="774" y="196.1826">cannon</text><rect fill="#80C080" height="32.2969" rx="10" ry="10" style="stroke:#303030;stroke-width:1.5;" width="79" x="872" y="175.1875"/><text fill="#000000" font-family="sans-serif" font-size="14" lengthAdjust="spacing" textLength="19" x="880" y="196.1826">AC</text><text fill="#000000" font-family="sans-serif" font-size="14" lengthAdjust="spacing" textLength="4" x="899" y="196.1826">&#160;</text><text fill="#000000" font-family="sans-serif" font-size="14" lengthAdjust="spacing" textLength="40" x="903" y="196.1826">shells</text><path d="M834,191.3359 L844,191.3359 C859,191.3359 847,191.3359 862,191.3359 L872,191.3359 " fill="none" style="stroke:#FFC0A0;stroke-width:1.0;"/><path d="M693,383.1914 L703,383.1914 C718,383.1914 706,191.3359 721,191.3359 L731,191.3359 " fill="none" style="stroke:#FFC0A0;stroke-width:1.0;"/><rect fill="#D0C080" height="32.2969" rx="10" ry="10" style="stroke:#303030;stroke-width:1.5;" width="112" x="731" y="284.0781"/><text fill="#000000" font-family="sans-serif" font-size="14" lengthAdjust="spacing" textLength="49" x="739" y="305.0732">plasma</text><text fill="#000000" font-family="sans-serif" font-size="14" lengthAdjust="spacing" textLength="4" x="788" y="305.0732">&#160;</text><text fill="#000000" font-family="sans-serif" font-size="14" lengthAdjust="spacing" textLength="43" x="792" y="305.0732">caster</text><rect fill="#80C080" height="32.2969" rx="10" ry="10" style="stroke:#303030;stroke-width:1.5;" width="125" x="881" y="215.4844"/><text fill="#000000" font-family="sans-serif" font-size="14" lengthAdjust="spacing" textLength="49" x="889" y="236.4795">plasma</text><text fill="#000000" font-family="sans-serif" font-size="14" lengthAdjust="spacing" textLength="4" x="938" y="236.4795">&#160;</text><text fill="#000000" font-family="sans-serif" font-size="14" lengthAdjust="spacing" textLength="56" x="942" y="236.4795">charges</text><path d="M843,300.2266 L853,300.2266 C868,300.2266 856,231.6328 871,231.6328 L881,231.6328 " fill="none" style="stroke:#FFC0A0;stroke-width:1.0;"/><rect fill="#80C080" height="32.2969" rx="10" ry="10" style="stroke:#303030;stroke-width:1.5;" width="73" x="881" y="304.2266"/><text fill="#000000" font-family="sans-serif" font-size="14" lengthAdjust="spacing" textLength="57" x="889" y="325.2217">features</text><rect fill="#80C0C0" height="32.2969" rx="10" ry="10" style="stroke:#303030;stroke-width:1.5;" width="106" x="992" y="255.7813"/><text fill="#000000" font-family="sans-serif" font-size="14" lengthAdjust="spacing" textLength="30" x="1000" y="276.7764">high</text><text fill="#000000" font-family="sans-serif" font-size="14" lengthAdjust="spacing" textLength="4" x="1030" y="276.7764">&#160;</text><text fill="#000000" font-family="sans-serif" font-size="14" lengthAdjust="spacing" textLength="56" x="1034" y="276.7764">damage</text><path d="M954,320.375 L964,320.375 C979,320.375 967,271.9297 982,271.9297 L992,271.9297 " fill="none" style="stroke:#FFC0A0;stroke-width:1.0;"/><rect fill="#80C0C0" height="32.2969" rx="10" ry="10" style="stroke:#303030;stroke-width:1.5;" width="96" x="992" y="296.0781"/><text fill="#000000" font-family="sans-serif" font-size="14" lengthAdjust="spacing" textLength="36" x="1000" y="317.0732">short</text><text fill="#000000" font-family="sans-serif" font-size="14" lengthAdjust="spacing" textLength="4" x="1036" y="317.0732">&#160;</text><text fill="#000000" font-family="sans-serif" font-size="14" lengthAdjust="spacing" textLength="40" x="1040" y="317.0732">range</text><path d="M954,320.375 L964,320.375 C979,320.375 967,312.2266 982,312.2266 L992,312.2266 " fill="none" style="stroke:#FFC0A0;stroke-width:1.0;"/><rect fill="#80C0C0" height="48.5938" rx="10" ry="10" style="stroke:#303030;stroke-width:1.5;" width="215" x="992" y="336.375"/><text fill="#000000" font-family="sans-serif" font-size="14" lengthAdjust="spacing" textLength="36" x="1000" y="357.3701">good</text><text fill="#000000" font-family="sans-serif" font-size="14" lengthAdjust="spacing" textLength="4" x="1036" y="357.3701">&#160;</text><text fill="#000000" font-family="sans-serif" font-size="14" lengthAdjust="spacing" textLength="40" x="1040" y="357.3701">range</text><text fill="#000000" font-family="sans-serif" font-size="14" lengthAdjust="spacing" textLength="4" x="1080" y="357.3701">&#160;</text><text fill="#000000" font-family="sans-serif" font-size="14" lengthAdjust="spacing" textLength="13" x="1084" y="357.3701">of</text><text fill="#000000" font-family="sans-serif" font-size="14" lengthAdjust="spacing" textLength="4" x="1097" y="357.3701">&#160;</text><text fill="#000000" font-family="sans-serif" font-size="14" lengthAdjust="spacing" textLength="56" x="1101" y="357.3701">damage</text><text fill="#000000" font-family="sans-serif" font-size="14" lengthAdjust="spacing" textLength="4" x="1157" y="357.3701">&#160;</text><text fill="#000000" font-family="sans-serif" font-size="14" lengthAdjust="spacing" textLength="38" x="1161" y="357.3701">types</text><text fill="#000000" font-family="sans-serif" font-size="14" lengthAdjust="spacing" textLength="18" x="1000" y="373.667">via</text><text fill="#000000" font-family="sans-serif" font-size="14" lengthAdjust="spacing" textLength="4" x="1018" y="373.667">&#160;</text><text fill="#000000" font-family="sans-serif" font-size="14" lengthAdjust="spacing" textLength="49" x="1022" y="373.667">various</text><text fill="#000000" font-family="sans-serif" font-size="14" lengthAdjust="spacing" textLength="4" x="1071" y="373.667">&#160;</text><text fill="#000000" font-family="sans-serif" font-size="14" lengthAdjust="spacing" textLength="43" x="1075" y="373.667">ammo</text><text fill="#000000" font-family="sans-serif" font-size="14" lengthAdjust="spacing" textLength="4" x="1118" y="373.667">&#160;</text><text fill="#000000" font-family="sans-serif" font-size="14" lengthAdjust="spacing" textLength="53" x="1122" y="373.667">variants</text><path d="M954,320.375 L964,320.375 C979,320.375 967,360.6719 982,360.6719 L992,360.6719 " fill="none" style="stroke:#FFC0A0;stroke-width:1.0;"/><path d="M843,300.2266 L853,300.2266 C868,300.2266 856,320.375 871,320.375 L881,320.375 " fill="none" style="stroke:#FFC0A0;stroke-width:1.0;"/><path d="M693,383.1914 L703,383.1914 C718,383.1914 706,300.2266 721,300.2266 L731,300.2266 " fill="none" style="stroke:#FFC0A0;stroke-width:1.0;"/><rect fill="#D0C080" height="32.2969" rx="10" ry="10" style="stroke:#303030;stroke-width:1.5;" width="49" x="731" y="449.5625"/><text fill="#000000" font-family="sans-serif" font-size="14" lengthAdjust="spacing" textLength="33" x="739" y="470.5576">laser</text><rect fill="#80C080" height="32.2969" rx="10" ry="10" style="stroke:#303030;stroke-width:1.5;" width="62" x="818" y="409.2656"/><text fill="#000000" font-family="sans-serif" font-size="14" lengthAdjust="spacing" textLength="46" x="826" y="430.2607">lenses</text><path d="M780,465.7109 L790,465.7109 C805,465.7109 793,425.4141 808,425.4141 L818,425.4141 " fill="none" style="stroke:#FFC0A0;stroke-width:1.0;"/><rect fill="#80C080" height="32.2969" rx="10" ry="10" style="stroke:#303030;stroke-width:1.5;" width="73" x="818" y="449.5625"/><text fill="#000000" font-family="sans-serif" font-size="14" lengthAdjust="spacing" textLength="57" x="826" y="470.5576">features</text><rect fill="#80C0C0" height="64.8906" rx="10" ry="10" style="stroke:#303030;stroke-width:1.5;" width="203" x="929" y="392.9688"/><text fill="#000000" font-family="sans-serif" font-size="14" lengthAdjust="spacing" textLength="23" x="937" y="413.9639">low</text><text fill="#000000" font-family="sans-serif" font-size="14" lengthAdjust="spacing" textLength="4" x="960" y="413.9639">&#160;</text><text fill="#000000" font-family="sans-serif" font-size="14" lengthAdjust="spacing" textLength="43" x="964" y="413.9639">ammo</text><text fill="#000000" font-family="sans-serif" font-size="14" lengthAdjust="spacing" textLength="4" x="1007" y="413.9639">&#160;</text><text fill="#000000" font-family="sans-serif" font-size="14" lengthAdjust="spacing" textLength="58" x="1011" y="413.9639">intensity</text><text fill="#000000" font-family="sans-serif" font-size="14" lengthAdjust="spacing" textLength="4" x="1069" y="413.9639">&#160;</text><text fill="#000000" font-family="sans-serif" font-size="14" lengthAdjust="spacing" textLength="51" x="1073" y="413.9639">(lenses</text><text fill="#000000" font-family="sans-serif" font-size="14" lengthAdjust="spacing" textLength="33" x="937" y="430.2607">wear</text><text fill="#000000" font-family="sans-serif" font-size="14" lengthAdjust="spacing" textLength="4" x="970" y="430.2607">&#160;</text><text fill="#000000" font-family="sans-serif" font-size="14" lengthAdjust="spacing" textLength="23" x="974" y="430.2607">out</text><text fill="#000000" font-family="sans-serif" font-size="14" lengthAdjust="spacing" textLength="4" x="997" y="430.2607">&#160;</text><text fill="#000000" font-family="sans-serif" font-size="14" lengthAdjust="spacing" textLength="73" x="1001" y="430.2607">eventually,</text><text fill="#000000" font-family="sans-serif" font-size="14" lengthAdjust="spacing" textLength="4" x="1074" y="430.2607">&#160;</text><text fill="#000000" font-family="sans-serif" font-size="14" lengthAdjust="spacing" textLength="23" x="1078" y="430.2607">but</text><text fill="#000000" font-family="sans-serif" font-size="14" lengthAdjust="spacing" textLength="35" x="937" y="446.5576">most</text><text fill="#000000" font-family="sans-serif" font-size="14" lengthAdjust="spacing" textLength="4" x="972" y="446.5576">&#160;</text><text fill="#000000" font-family="sans-serif" font-size="14" lengthAdjust="spacing" textLength="38" x="976" y="446.5576">serve</text><text fill="#000000" font-family="sans-serif" font-size="14" lengthAdjust="spacing" textLength="4" x="1014" y="446.5576">&#160;</text><text fill="#000000" font-family="sans-serif" font-size="14" lengthAdjust="spacing" textLength="8" x="1018" y="446.5576">a</text><text fill="#000000" font-family="sans-serif" font-size="14" lengthAdjust="spacing" textLength="4" x="1026" y="446.5576">&#160;</text><text fill="#000000" font-family="sans-serif" font-size="14" lengthAdjust="spacing" textLength="40" x="1030" y="446.5576">while)</text><path d="M891,465.7109 L901,465.7109 C916,465.7109 904,425.4141 919,425.4141 L929,425.4141 " fill="none" style="stroke:#FFC0A0;stroke-width:1.0;"/><rect fill="#80C0C0" height="32.2969" rx="10" ry="10" style="stroke:#303030;stroke-width:1.5;" width="116" x="929" y="465.8594"/><text fill="#000000" font-family="sans-serif" font-size="14" lengthAdjust="spacing" textLength="56" x="937" y="486.8545">medium</text><text fill="#000000" font-family="sans-serif" font-size="14" lengthAdjust="spacing" textLength="4" x="993" y="486.8545">&#160;</text><text fill="#000000" font-family="sans-serif" font-size="14" lengthAdjust="spacing" textLength="40" x="997" y="486.8545">range</text><path d="M891,465.7109 L901,465.7109 C916,465.7109 904,482.0078 919,482.0078 L929,482.0078 " fill="none" style="stroke:#FFC0A0;stroke-width:1.0;"/><rect fill="#80C0C0" height="32.2969" rx="10" ry="10" style="stroke:#303030;stroke-width:1.5;" width="99" x="929" y="506.1563"/><text fill="#000000" font-family="sans-serif" font-size="14" lengthAdjust="spacing" textLength="23" x="937" y="527.1514">low</text><text fill="#000000" font-family="sans-serif" font-size="14" lengthAdjust="spacing" textLength="4" x="960" y="527.1514">&#160;</text><text fill="#000000" font-family="sans-serif" font-size="14" lengthAdjust="spacing" textLength="56" x="964" y="527.1514">damage</text><path d="M891,465.7109 L901,465.7109 C916,465.7109 904,522.3047 919,522.3047 L929,522.3047 " fill="none" style="stroke:#FFC0A0;stroke-width:1.0;"/><path d="M780,465.7109 L790,465.7109 C805,465.7109 793,465.7109 808,465.7109 L818,465.7109 " fill="none" style="stroke:#FFC0A0;stroke-width:1.0;"/><path d="M693,383.1914 L703,383.1914 C718,383.1914 706,465.7109 721,465.7109 L731,465.7109 " fill="none" style="stroke:#FFC0A0;stroke-width:1.0;"/><rect fill="#D0C080" height="32.2969" rx="10" ry="10" style="stroke:#303030;stroke-width:1.5;" width="124" x="731" y="599.1953"/><text fill="#000000" font-family="sans-serif" font-size="14" lengthAdjust="spacing" textLength="44" x="739" y="620.1904">rocket</text><text fill="#000000" font-family="sans-serif" font-size="14" lengthAdjust="spacing" textLength="4" x="783" y="620.1904">&#160;</text><text fill="#000000" font-family="sans-serif" font-size="14" lengthAdjust="spacing" textLength="60" x="787" y="620.1904">launcher</text><rect fill="#80C080" height="32.2969" rx="10" ry="10" style="stroke:#303030;stroke-width:1.5;" width="68" x="893" y="558.8984"/><text fill="#000000" font-family="sans-serif" font-size="14" lengthAdjust="spacing" textLength="52" x="901" y="579.8936">rockets</text><path d="M855,615.3438 L865,615.3438 C880,615.3438 868,575.0469 883,575.0469 L893,575.0469 " fill="none" style="stroke:#FFC0A0;stroke-width:1.0;"/><rect fill="#80C080" height="32.2969" rx="10" ry="10" style="stroke:#303030;stroke-width:1.5;" width="73" x="893" y="599.1953"/><text fill="#000000" font-family="sans-serif" font-size="14" lengthAdjust="spacing" textLength="57" x="901" y="620.1904">features</text><rect fill="#80C0C0" height="64.8906" rx="10" ry="10" style="stroke:#303030;stroke-width:1.5;" width="178" x="1004" y="546.4531"/><text fill="#000000" font-family="sans-serif" font-size="14" lengthAdjust="spacing" textLength="28" x="1012" y="567.4482">very</text><text fill="#000000" font-family="sans-serif" font-size="14" lengthAdjust="spacing" textLength="4" x="1040" y="567.4482">&#160;</text><text fill="#000000" font-family="sans-serif" font-size="14" lengthAdjust="spacing" textLength="40" x="1044" y="567.4482">broad</text><text fill="#000000" font-family="sans-serif" font-size="14" lengthAdjust="spacing" textLength="4" x="1084" y="567.4482">&#160;</text><text fill="#000000" font-family="sans-serif" font-size="14" lengthAdjust="spacing" textLength="56" x="1088" y="567.4482">damage</text><text fill="#000000" font-family="sans-serif" font-size="14" lengthAdjust="spacing" textLength="4" x="1144" y="567.4482">&#160;</text><text fill="#000000" font-family="sans-serif" font-size="14" lengthAdjust="spacing" textLength="26" x="1148" y="567.4482">and</text><text fill="#000000" font-family="sans-serif" font-size="14" lengthAdjust="spacing" textLength="40" x="1012" y="583.7451">range</text><text fill="#000000" font-family="sans-serif" font-size="14" lengthAdjust="spacing" textLength="4" x="1052" y="583.7451">&#160;</text><text fill="#000000" font-family="sans-serif" font-size="14" lengthAdjust="spacing" textLength="52" x="1056" y="583.7451">options</text><text fill="#000000" font-family="sans-serif" font-size="14" lengthAdjust="spacing" textLength="4" x="1108" y="583.7451">&#160;</text><text fill="#000000" font-family="sans-serif" font-size="14" lengthAdjust="spacing" textLength="18" x="1112" y="583.7451">via</text><text fill="#000000" font-family="sans-serif" font-size="14" lengthAdjust="spacing" textLength="4" x="1130" y="583.7451">&#160;</text><text fill="#000000" font-family="sans-serif" font-size="14" lengthAdjust="spacing" textLength="32" x="1134" y="583.7451">wide</text><text fill="#000000" font-family="sans-serif" font-size="14" lengthAdjust="spacing" textLength="43" x="1012" y="600.042">ammo</text><text fill="#000000" font-family="sans-serif" font-size="14" lengthAdjust="spacing" textLength="4" x="1055" y="600.042">&#160;</text><text fill="#000000" font-family="sans-serif" font-size="14" lengthAdjust="spacing" textLength="30" x="1059" y="600.042">type</text><text fill="#000000" font-family="sans-serif" font-size="14" lengthAdjust="spacing" textLength="4" x="1089" y="600.042">&#160;</text><text fill="#000000" font-family="sans-serif" font-size="14" lengthAdjust="spacing" textLength="63" x="1093" y="600.042">selection</text><path d="M966,615.3438 L976,615.3438 C991,615.3438 979,578.8984 994,578.8984 L1004,578.8984 " fill="none" style="stroke:#FFC0A0;stroke-width:1.0;"/><rect fill="#80C0C0" height="64.8906" rx="10" ry="10" style="stroke:#303030;stroke-width:1.5;" width="204" x="1004" y="619.3438"/><text fill="#000000" font-family="sans-serif" font-size="14" lengthAdjust="spacing" textLength="81" x="1012" y="640.3389">ammunition</text><text fill="#000000" font-family="sans-serif" font-size="14" lengthAdjust="spacing" textLength="4" x="1093" y="640.3389">&#160;</text><text fill="#000000" font-family="sans-serif" font-size="14" lengthAdjust="spacing" textLength="11" x="1097" y="640.3389">is</text><text fill="#000000" font-family="sans-serif" font-size="14" lengthAdjust="spacing" textLength="4" x="1108" y="640.3389">&#160;</text><text fill="#000000" font-family="sans-serif" font-size="14" lengthAdjust="spacing" textLength="40" x="1112" y="640.3389">bulky,</text><text fill="#000000" font-family="sans-serif" font-size="14" lengthAdjust="spacing" textLength="4" x="1152" y="640.3389">&#160;</text><text fill="#000000" font-family="sans-serif" font-size="14" lengthAdjust="spacing" textLength="44" x="1156" y="640.3389">heavy,</text><text fill="#000000" font-family="sans-serif" font-size="14" lengthAdjust="spacing" textLength="26" x="1012" y="656.6357">and</text><text fill="#000000" font-family="sans-serif" font-size="14" lengthAdjust="spacing" textLength="4" x="1038" y="656.6357">&#160;</text><text fill="#000000" font-family="sans-serif" font-size="14" lengthAdjust="spacing" textLength="36" x="1042" y="656.6357">more</text><text fill="#000000" font-family="sans-serif" font-size="14" lengthAdjust="spacing" textLength="4" x="1078" y="656.6357">&#160;</text><text fill="#000000" font-family="sans-serif" font-size="14" lengthAdjust="spacing" textLength="70" x="1082" y="656.6357">expensive</text><text fill="#000000" font-family="sans-serif" font-size="14" lengthAdjust="spacing" textLength="4" x="1152" y="656.6357">&#160;</text><text fill="#000000" font-family="sans-serif" font-size="14" lengthAdjust="spacing" textLength="31" x="1156" y="656.6357">than</text><text fill="#000000" font-family="sans-serif" font-size="14" lengthAdjust="spacing" textLength="35" x="1012" y="672.9326">most</text><text fill="#000000" font-family="sans-serif" font-size="14" lengthAdjust="spacing" textLength="4" x="1047" y="672.9326">&#160;</text><text fill="#000000" font-family="sans-serif" font-size="14" lengthAdjust="spacing" textLength="37" x="1051" y="672.9326">other</text><text fill="#000000" font-family="sans-serif" font-size="14" lengthAdjust="spacing" textLength="4" x="1088" y="672.9326">&#160;</text><text fill="#000000" font-family="sans-serif" font-size="14" lengthAdjust="spacing" textLength="63" x="1092" y="672.9326">solutions</text><path d="M966,615.3438 L976,615.3438 C991,615.3438 979,651.7891 994,651.7891 L1004,651.7891 " fill="none" style="stroke:#FFC0A0;stroke-width:1.0;"/><path d="M855,615.3438 L865,615.3438 C880,615.3438 868,615.3438 883,615.3438 L893,615.3438 " fill="none" style="stroke:#FFC0A0;stroke-width:1.0;"/><path d="M693,383.1914 L703,383.1914 C718,383.1914 706,615.3438 721,615.3438 L731,615.3438 " fill="none" style="stroke:#FFC0A0;stroke-width:1.0;"/><rect fill="#D0C080" height="32.2969" rx="10" ry="10" style="stroke:#303030;stroke-width:1.5;" width="88" x="731" y="639.4922"/><text fill="#000000" font-family="sans-serif" font-size="14" lengthAdjust="spacing" textLength="72" x="739" y="660.4873">torpedoes</text><path d="M693,383.1914 L703,383.1914 C718,383.1914 706,655.6406 721,655.6406 L731,655.6406 " fill="none" style="stroke:#FFC0A0;stroke-width:1.0;"/><rect fill="#D0C080" height="32.2969" rx="10" ry="10" style="stroke:#303030;stroke-width:1.5;" width="64" x="731" y="679.7891"/><text fill="#000000" font-family="sans-serif" font-size="14" lengthAdjust="spacing" textLength="48" x="739" y="700.7842">bombs</text><path d="M693,383.1914 L703,383.1914 C718,383.1914 706,695.9375 721,695.9375 L731,695.9375 " fill="none" style="stroke:#FFC0A0;stroke-width:1.0;"/><rect fill="#D0C080" height="32.2969" rx="10" ry="10" style="stroke:#303030;stroke-width:1.5;" width="65" x="731" y="720.0859"/><text fill="#000000" font-family="sans-serif" font-size="14" lengthAdjust="spacing" textLength="49" x="739" y="741.0811">drones</text><path d="M693,383.1914 L703,383.1914 C718,383.1914 706,736.2344 721,736.2344 L731,736.2344 " fill="none" style="stroke:#FFC0A0;stroke-width:1.0;"/><path d="M501,383.1914 L511,383.1914 C526,383.1914 514,383.1914 529,383.1914 L539,383.1914 " fill="none" style="stroke:#FFC0A0;stroke-width:1.0;"/><rect fill="#F8F0E0" height="32.2969" rx="10" ry="10" style="stroke:#303030;stroke-width:1.5;" width="83" x="297" y="226.0039"/><text fill="#000000" font-family="sans-serif" font-size="14" lengthAdjust="spacing" textLength="67" x="305" y="246.999">defensive</text><rect fill="#D0C080" height="32.2969" rx="10" ry="10" style="stroke:#303030;stroke-width:1.5;" width="65" x="194" y="165.5586"/><text fill="#000000" font-family="sans-serif" font-size="14" lengthAdjust="spacing" textLength="49" x="202" y="186.5537">armour</text><path d="M297,242.1523 L287,242.1523 C272,242.1523 284,181.707 269,181.707 L259,181.707 " fill="none" style="stroke:#FFC0A0;stroke-width:1.0;"/><rect fill="#D0C080" height="32.2969" rx="10" ry="10" style="stroke:#303030;stroke-width:1.5;" width="57" x="202" y="205.8555"/><text fill="#000000" font-family="sans-serif" font-size="14" lengthAdjust="spacing" textLength="41" x="210" y="226.8506">shield</text><path d="M297,242.1523 L287,242.1523 C272,242.1523 284,222.0039 269,222.0039 L259,222.0039 " fill="none" style="stroke:#FFC0A0;stroke-width:1.0;"/><rect fill="#D0C080" height="32.2969" rx="10" ry="10" style="stroke:#303030;stroke-width:1.5;" width="97" x="162" y="246.1523"/><text fill="#000000" font-family="sans-serif" font-size="14" lengthAdjust="spacing" textLength="34" x="170" y="267.1475">sand</text><text fill="#000000" font-family="sans-serif" font-size="14" lengthAdjust="spacing" textLength="4" x="204" y="267.1475">&#160;</text><text fill="#000000" font-family="sans-serif" font-size="14" lengthAdjust="spacing" textLength="43" x="208" y="267.1475">caster</text><path d="M297,242.1523 L287,242.1523 C272,242.1523 284,262.3008 269,262.3008 L259,262.3008 " fill="none" style="stroke:#FFC0A0;stroke-width:1.0;"/><rect fill="#D0C080" height="32.2969" rx="10" ry="10" style="stroke:#303030;stroke-width:1.5;" width="112" x="147" y="286.4492"/><text fill="#000000" font-family="sans-serif" font-size="14" lengthAdjust="spacing" textLength="35" x="155" y="307.4443">point</text><text fill="#000000" font-family="sans-serif" font-size="14" lengthAdjust="spacing" textLength="4" x="190" y="307.4443">&#160;</text><text fill="#000000" font-family="sans-serif" font-size="14" lengthAdjust="spacing" textLength="57" x="194" y="307.4443">defence</text><path d="M297,242.1523 L287,242.1523 C272,242.1523 284,302.5977 269,302.5977 L259,302.5977 " fill="none" style="stroke:#FFC0A0;stroke-width:1.0;"/><path d="M418,383.1914 L408,383.1914 C393,383.1914 405,242.1523 390,242.1523 L380,242.1523 " fill="none" style="stroke:#FFC0A0;stroke-width:1.0;"/><rect fill="#F8F0E0" height="32.2969" rx="10" ry="10" style="stroke:#303030;stroke-width:1.5;" width="114" x="266" y="447.6367"/><text fill="#000000" font-family="sans-serif" font-size="14" lengthAdjust="spacing" textLength="56" x="274" y="468.6318">damage</text><text fill="#000000" font-family="sans-serif" font-size="14" lengthAdjust="spacing" textLength="4" x="330" y="468.6318">&#160;</text><text fill="#000000" font-family="sans-serif" font-size="14" lengthAdjust="spacing" textLength="38" x="334" y="468.6318">types</text><rect fill="#D0C080" height="32.2969" rx="10" ry="10" style="stroke:#303030;stroke-width:1.5;" width="52" x="176" y="387.1914"/><text fill="#000000" font-family="sans-serif" font-size="14" lengthAdjust="spacing" textLength="36" x="184" y="408.1865">basic</text><rect fill="#80C080" height="32.2969" rx="10" ry="10" style="stroke:#303030;stroke-width:1.5;" width="61" x="77" y="326.7461"/><text fill="#000000" font-family="sans-serif" font-size="14" lengthAdjust="spacing" textLength="45" x="85" y="347.7412">kinetic</text><path d="M176,403.3398 L166,403.3398 C151,403.3398 163,342.8945 148,342.8945 L138,342.8945 " fill="none" style="stroke:#FFC0A0;stroke-width:1.0;"/><rect fill="#80C080" height="32.2969" rx="10" ry="10" style="stroke:#303030;stroke-width:1.5;" width="68" x="70" y="367.043"/><text fill="#000000" font-family="sans-serif" font-size="14" lengthAdjust="spacing" textLength="52" x="78" y="388.0381">thermal</text><path d="M176,403.3398 L166,403.3398 C151,403.3398 163,383.1914 148,383.1914 L138,383.1914 " fill="none" style="stroke:#FFC0A0;stroke-width:1.0;"/><rect fill="#80C080" height="32.2969" rx="10" ry="10" style="stroke:#303030;stroke-width:1.5;" width="128" x="10" y="407.3398"/><text fill="#000000" font-family="sans-serif" font-size="14" lengthAdjust="spacing" textLength="112" x="18" y="428.335">electromagnetic</text><path d="M176,403.3398 L166,403.3398 C151,403.3398 163,423.4883 148,423.4883 L138,423.4883 " fill="none" style="stroke:#FFC0A0;stroke-width:1.0;"/><rect fill="#80C080" height="32.2969" rx="10" ry="10" style="stroke:#303030;stroke-width:1.5;" width="82" x="56" y="447.6367"/><text fill="#000000" font-family="sans-serif" font-size="14" lengthAdjust="spacing" textLength="66" x="64" y="468.6318">explosion</text><path d="M176,403.3398 L166,403.3398 C151,403.3398 163,463.7852 148,463.7852 L138,463.7852 " fill="none" style="stroke:#FFC0A0;stroke-width:1.0;"/><path d="M266,463.7852 L256,463.7852 C241,463.7852 253,403.3398 238,403.3398 L228,403.3398 " fill="none" style="stroke:#FFC0A0;stroke-width:1.0;"/><rect fill="#D0C080" height="32.2969" rx="10" ry="10" style="stroke:#303030;stroke-width:1.5;" width="83" x="145" y="528.2305"/><text fill="#000000" font-family="sans-serif" font-size="14" lengthAdjust="spacing" textLength="67" x="153" y="549.2256">advanced</text><rect fill="#80C080" height="32.2969" rx="10" ry="10" style="stroke:#303030;stroke-width:1.5;" width="75" x="32" y="487.9336"/><text fill="#000000" font-family="sans-serif" font-size="14" lengthAdjust="spacing" textLength="59" x="40" y="508.9287">radiation</text><path d="M145,544.3789 L135,544.3789 C120,544.3789 132,504.082 117,504.082 L107,504.082 " fill="none" style="stroke:#FFC0A0;stroke-width:1.0;"/><rect fill="#80C080" height="32.2969" rx="10" ry="10" style="stroke:#303030;stroke-width:1.5;" width="60" x="47" y="528.2305"/><text fill="#000000" font-family="sans-serif" font-size="14" lengthAdjust="spacing" textLength="44" x="55" y="549.2256">gravity</text><path d="M145,544.3789 L135,544.3789 C120,544.3789 132,544.3789 117,544.3789 L107,544.3789 " fill="none" style="stroke:#FFC0A0;stroke-width:1.0;"/><rect fill="#80C080" height="32.2969" rx="10" ry="10" style="stroke:#303030;stroke-width:1.5;" width="44" x="63" y="568.5273"/><text fill="#000000" font-family="sans-serif" font-size="14" lengthAdjust="spacing" textLength="28" x="71" y="589.5225">void</text><path d="M145,544.3789 L135,544.3789 C120,544.3789 132,584.6758 117,584.6758 L107,584.6758 " fill="none" style="stroke:#FFC0A0;stroke-width:1.0;"/><path d="M266,463.7852 L256,463.7852 C241,463.7852 253,544.3789 238,544.3789 L228,544.3789 " fill="none" style="stroke:#FFC0A0;stroke-width:1.0;"/><path d="M418,383.1914 L408,383.1914 C393,383.1914 405,463.7852 390,463.7852 L380,463.7852 " fill="none" style="stroke:#FFC0A0;stroke-width:1.0;"/><!--SRC=[xLRVJoCt47xVlsAgle3Im2O7D1UTAWhqa2XH4U6kZzLaxMJT-CVAQoz49_xtZjSR22Hxx5FR1pPIilRCD_xccx7ZqzAXTKfefh18aX-4pgHd70uElP9_bKkX2xIeoYJfWJBCIruclHxSSooCBk4Gp7pETIagJjFaWbakD8U5rs7SWyabe5AcDbeKyjaov-YyhSE58NzmbYjEJdh1eqVmZsQulOJ2chzvvaHaq0Fqpa26MficuA_dKEPSHWWK4ak5v50wRgF3UYf7ksZMVSqY5uiS62fiEFGefB5kWrKF5iQmE479DyxWLWKleH885LfXV5cdNGzGkqY9bbzJaQHP2mLfxYDMQ1UKTIlOY-v1TGl6E-0LrywZbAkVO4PZPKe75BpYW72VaqRxJJJ5cV3g1V-mm7EAO4ssv8x8UPtbQtvnSZV1YjiLpAn1jauUzPCWXHEXBu8GzuBwgCuaY4FqP2XVKwrUi7WjmWI8ahAGIqecvrZHJmYeZENK5KNiBd0vwfYdSKGJIYDzlLQTX3EsuCmqhJ4pQXRVc3MQ9fD-7nXVDsgVHcYLyRP-BNF19OklOU6cPSAuC5I4YCnuZB9HxjfbXgN8mbiVQBDmjnu4aWfb7DIfMqFG3G_AJPeo258JOXNI8YpQB3A1hh7rOM6neaQ8Wye8bfnosh7hNNlwSXFNpzFM9ORPSc6Dr-pSI6FXnmzf-6owqBUBfVYMmAxdiz6kGVEKZMRffjkPiOpRTdFB-e-R391Q8wJOWK03RoEmm_oQm1R7CsobFmtIjXb_QmyvTQPeirq8L4Qpjtcj7R-RN-EqhT1BWQsbVVylblVPevcVpxCKNx7Inl7_gEHrWBjSP4iw8KeO16AVIhUI_9UasKgax2AmZ0IrORkulhrKV2Ru89HNVmhcSXYcsmuto9ZG2nZjWDg5q72qPRYDorfD1-9mE-8r7KZR4ZtMtsF62vVlfVjTKjeM-EssUVAO1atfJAOpzZi4DmAy83ZeH70-cgTy1thO2StIB1tjG7_eX1wre8ywexCTwEDEw8_fnvrvdtJCUxIJ-S-Tq27h9-RrpymyoB2NldNib0RMTZHjT4TpTaJGO_BfiDcexxVIzrlf-wtq_tahlP7KOrycrw4q8I0C3eRfyEZWU6_gDVsdhM1u0eDqF3WU7u_WR7e7mRoVx5tUN5T3ajBRZ0CJfRDYLgkwdrnXXN3hjHEAZ-4FAiFLnU_h2RgELOAaLTI6oTNNoRF3oL7_J3YOXbwqy7MINF0vUka8aPdmfpk6BtUV-wFaclh5avHZu3evfyFEsHNPfly0]--></g></svg>